<svg xmlns="http://www.w3.org/2000/svg" xmlns:xlink="http://www.w3.org/1999/xlink" width="50" zoomAndPan="magnify" viewBox="0 0 375 374.999991" height="50" preserveAspectRatio="xMidYMid meet" version="1.0"><defs><clipPath id="bb3ceffa87"><path d="M 64.015625 60.851562 L 176 60.851562 L 176 314.351562 L 64.015625 314.351562 Z M 64.015625 60.851562 " clip-rule="nonzero"/></clipPath><clipPath id="b5881bef51"><path d="M 194 60.851562 L 310.765625 60.851562 L 310.765625 314 L 194 314 Z M 194 60.851562 " clip-rule="nonzero"/></clipPath></defs><g clip-path="url(#bb3ceffa87)"><path fill="#ffbd59" d="M 175.1875 60.84375 L 175.1875 314.125 C 164.726562 313.410156 154.613281 311.425781 145.003906 308.328125 C 107.203125 296.140625 77.144531 266.714844 64.09375 229.304688 L 94.210938 219.464844 C 102.941406 243.980469 121.433594 263.863281 145.003906 274.445312 L 145.003906 100.523438 C 136.453125 104.359375 128.574219 109.425781 121.582031 115.488281 L 100.910156 91.5 C 113.640625 80.472656 128.59375 71.929688 145.003906 66.640625 C 154.613281 63.542969 164.726562 61.5625 175.1875 60.84375 Z M 175.1875 60.84375 " fill-opacity="1" fill-rule="nonzero"/></g><g clip-path="url(#b5881bef51)"><path fill="#ffbd59" d="M 310.921875 187.488281 C 310.921875 212.59375 303.632812 235.996094 291.054688 255.699219 L 265.101562 237.480469 C 268.863281 231.386719 271.960938 224.839844 274.289062 217.9375 C 275.226562 215.152344 276.042969 212.304688 276.722656 209.410156 C 278.382812 202.371094 279.257812 195.03125 279.257812 187.488281 C 279.257812 179.191406 278.195312 171.140625 276.203125 163.464844 L 268.226562 183.695312 L 250.90625 227.613281 L 236.132812 182.789062 L 224.625 147.972656 L 224.625 307.78125 C 215.027344 311.019531 204.914062 313.148438 194.4375 314 L 194.4375 60.96875 C 194.933594 61.007812 195.421875 61.054688 195.914062 61.097656 C 205.859375 62.027344 215.476562 64.101562 224.625 67.191406 C 226.578125 67.851562 228.507812 68.554688 230.417969 69.308594 L 245.402344 114.648438 L 253.429688 138.929688 L 257.957031 127.445312 L 257.957031 127.441406 L 270.800781 94.878906 C 279.242188 102.792969 286.601562 111.851562 292.632812 121.804688 C 304.242188 140.964844 310.921875 163.449219 310.921875 187.488281 Z M 310.921875 187.488281 " fill-opacity="1" fill-rule="nonzero"/></g></svg>